<svg width="150" height="150" viewBox="0 0 150 150" fill="none" xmlns="http://www.w3.org/2000/svg">
<circle cx="75" cy="75" r="75" fill="white"/>
<mask id="mask0_272_12" style="mask-type:luminance" maskUnits="userSpaceOnUse" x="30" y="30" width="90" height="90">
<path d="M75.0007 65.4762C77.1894 65.4762 79.3567 65.0451 81.3788 64.2075C83.4009 63.3699 85.2382 62.1422 86.7858 60.5946C88.3335 59.047 89.5611 57.2096 90.3987 55.1875C91.2363 53.1655 91.6674 50.9982 91.6674 48.8095C91.6674 46.6208 91.2363 44.4535 90.3987 42.4314C89.5611 40.4093 88.3335 38.572 86.7858 37.0244C85.2382 35.4767 83.4009 34.2491 81.3788 33.4115C79.3567 32.5739 77.1894 32.1428 75.0007 32.1428C70.5804 32.1428 66.3412 33.8988 63.2156 37.0244C60.09 40.15 58.334 44.3892 58.334 48.8095C58.334 53.2298 60.09 57.469 63.2156 60.5946C66.3412 63.7202 70.5804 65.4762 75.0007 65.4762ZM32.1436 115V117.857H117.858V115C117.858 104.333 117.858 99 115.782 94.9238C113.956 91.3399 111.042 88.4261 107.458 86.6C103.382 84.5238 98.0483 84.5238 87.3817 84.5238H62.6197C51.9531 84.5238 46.6197 84.5238 42.5436 86.6C38.9597 88.4261 36.0459 91.3399 34.2197 94.9238C32.1436 99 32.1436 104.333 32.1436 115Z" fill="#555555" stroke="white" stroke-width="4" stroke-linecap="round" stroke-linejoin="round"/>
</mask>
<g mask="url(#mask0_272_12)">
<path d="M17.8574 17.8571H132.143V132.143H17.8574V17.8571Z" fill="black"/>
</g>
</svg>
