<svg width="145" height="150" viewBox="0 0 145 150" fill="none" xmlns="http://www.w3.org/2000/svg">
<path d="M72.3267 1.5C111.261 1.5 142.923 34.3507 142.923 75C142.923 115.649 111.261 148.5 72.3267 148.5C33.393 148.5 1.73096 115.649 1.73096 75C1.73096 34.3508 33.393 1.50024 72.3267 1.5Z" fill="#FF8559" stroke="#FF8559" stroke-width="3"/>
<path fill-rule="evenodd" clip-rule="evenodd" d="M91.4583 73.7083C97.1666 77.5833 101.167 82.8333 101.167 89.8333V102.333H113.667C115.958 102.333 117.833 100.458 117.833 98.1666V89.8333C117.833 80.75 102.958 75.375 91.4583 73.7083Z" fill="white"/>
<path d="M59.5 69C68.7047 69 76.1666 61.5381 76.1666 52.3334C76.1666 43.1286 68.7047 35.6667 59.5 35.6667C50.2952 35.6667 42.8333 43.1286 42.8333 52.3334C42.8333 61.5381 50.2952 69 59.5 69Z" fill="white"/>
<path fill-rule="evenodd" clip-rule="evenodd" d="M84.5 69C93.7084 69 101.167 61.5417 101.167 52.3334C101.167 43.125 93.7084 35.6667 84.5 35.6667C82.5417 35.6667 80.7084 36.0834 78.9584 36.6667C82.5439 41.1009 84.4999 46.6309 84.4999 52.3334C84.4999 58.0358 82.5439 63.5658 78.9584 68C80.7084 68.5834 82.5417 69 84.5 69ZM59.5 73.1667C48.375 73.1667 26.1667 78.75 26.1667 89.8334V98.1667C26.1667 100.458 28.0417 102.333 30.3334 102.333H88.6667C90.9584 102.333 92.8334 100.458 92.8334 98.1667V89.8334C92.8334 78.75 70.625 73.1667 59.5 73.1667Z" fill="white"/>
</svg>
