<svg width="145" height="150" viewBox="0 0 145 150" fill="none" xmlns="http://www.w3.org/2000/svg">
<path d="M72.7165 1.5C111.65 1.5 143.313 34.3507 143.313 75C143.313 115.649 111.65 148.5 72.7165 148.5C33.7828 148.5 2.12079 115.649 2.12079 75C2.12079 34.3508 33.7828 1.50024 72.7165 1.5Z" fill="#FF8559" stroke="#FF8559" stroke-width="3"/>
<path d="M110.5 49H102.167V86.5H48V94.8333C48 97.125 49.875 99 52.1666 99H98L114.667 115.667V53.1666C114.667 50.875 112.792 49 110.5 49ZM93.8333 74V36.5C93.8333 34.2083 91.9583 32.3333 89.6666 32.3333H35.5C33.2083 32.3333 31.3333 34.2083 31.3333 36.5V94.8333L48 78.1666H89.6666C91.9583 78.1666 93.8333 76.2916 93.8333 74Z" fill="white"/>
</svg>
