<svg width="145" height="150" viewBox="0 0 145 150" fill="none" xmlns="http://www.w3.org/2000/svg">
<path d="M72.1064 1.5C111.04 1.5 142.703 34.3507 142.703 75C142.703 115.649 111.04 148.5 72.1064 148.5C33.1728 148.5 1.51074 115.649 1.51074 75C1.51074 34.3508 33.1728 1.50024 72.1064 1.5Z" fill="#FF8559" stroke="#FF8559" stroke-width="3"/>
<path d="M106.333 43H93.8334V34.6666C93.8334 30.0416 90.125 26.3333 85.5 26.3333H60.5C55.875 26.3333 52.1667 30.0416 52.1667 34.6666V43H39.6667C35.0417 43 31.3334 46.7083 31.3334 51.3333V97.1666C31.3334 101.792 35.0417 105.5 39.6667 105.5H106.333C110.958 105.5 114.667 101.792 114.667 97.1666V51.3333C114.667 46.7083 110.958 43 106.333 43ZM60.5 34.6666H85.5V43H60.5V34.6666ZM106.333 97.1666H39.6667V88.8333H106.333V97.1666ZM106.333 76.3333H39.6667V51.3333H52.1667V59.6666H60.5V51.3333H85.5V59.6666H93.8334V51.3333H106.333V76.3333Z" fill="white"/>
</svg>
