<svg width="90" height="44" viewBox="0 0 90 44" fill="none" xmlns="http://www.w3.org/2000/svg">
<path fill-rule="evenodd" clip-rule="evenodd" d="M79.8299 40.1866L61.7228 43.1715H27.9811L13.0572 39.5355L13.2368 38.8979L28.0724 42.5123H61.6604L79.7062 39.5376L79.8299 40.1866ZM1.65469 12.1569L13.7031 39.1814L13.0485 39.4338L1 12.4094L1.65469 12.1569ZM88.8288 12.1569L60.0241 22.5186L59.7684 21.9038L88.5731 11.5421L88.8288 12.1569ZM88.8757 12.1363L45.7129 34.8847L13.626 39.2002L13.5246 38.5478L45.4795 34.2501L88.5263 11.5628L88.8757 12.1363ZM1.29215 12.9122L1.62355 12.3756L43.0962 33.7646L79.1106 39.3389L79.0139 39.9518L42.8752 34.3582L1.29215 12.9122ZM88.829 12.1569L79.6155 39.1813L78.9399 38.9821L88.1534 11.9577L88.829 12.1569ZM33.0339 20.8497L1.65481 12.1568L1.51503 12.5933L32.8941 21.2861L33.0339 20.8497Z" fill="black"/>
<path d="M79.8299 40.1866L79.8966 40.591C80.0056 40.573 80.1027 40.5118 80.1659 40.4212C80.2292 40.3307 80.2532 40.2184 80.2325 40.1099L79.8299 40.1866ZM61.7228 43.1715V43.5813C61.7451 43.5813 61.7674 43.5795 61.7894 43.5758L61.7228 43.1715ZM27.9811 43.1715L27.8841 43.5696C27.9159 43.5774 27.9484 43.5813 27.9811 43.5813V43.1715ZM13.0572 39.5355L12.6627 39.4244C12.6326 39.5314 12.6472 39.6462 12.7033 39.7422C12.7594 39.8382 12.8521 39.9074 12.9602 39.9337L13.0572 39.5355ZM13.2368 38.8979L13.3338 38.4997C13.1194 38.4475 12.9022 38.5744 12.8423 38.7868L13.2368 38.8979ZM28.0724 42.5123L27.9754 42.9105C28.0072 42.9183 28.0397 42.9222 28.0724 42.9222V42.5123ZM61.6604 42.5123V42.9222C61.6828 42.9222 61.7051 42.9203 61.7271 42.9167L61.6604 42.5123ZM79.7062 39.5376L80.1088 39.4609C80.0672 39.2424 79.859 39.0971 79.6396 39.1332L79.7062 39.5376ZM13.7031 39.1814L13.8506 39.5637C13.9554 39.5233 14.039 39.4416 14.0819 39.3378C14.1248 39.234 14.1232 39.1171 14.0775 39.0145L13.7031 39.1814ZM1.65469 12.1569L2.02899 11.99C1.94016 11.7908 1.71079 11.696 1.50724 11.7745L1.65469 12.1569ZM13.0485 39.4338L12.6742 39.6007C12.763 39.8 12.9924 39.8947 13.1959 39.8162L13.0485 39.4338ZM1 12.4094L0.852549 12.027C0.747731 12.0674 0.664101 12.1491 0.621215 12.2529C0.578329 12.3567 0.579949 12.4736 0.625694 12.5762L1 12.4094ZM60.0241 22.5186L59.6457 22.676C59.7296 22.8778 59.9572 22.9782 60.1628 22.9042L60.0241 22.5186ZM88.8288 12.1569L88.9675 12.5425C89.073 12.5046 89.1584 12.425 89.2037 12.3224C89.249 12.2198 89.2503 12.1031 89.2072 11.9995L88.8288 12.1569ZM59.7684 21.9038L59.6297 21.5182C59.5242 21.5562 59.4388 21.6357 59.3935 21.7384C59.3482 21.841 59.347 21.9577 59.39 22.0612L59.7684 21.9038ZM88.5731 11.5421L88.9515 11.3848C88.8676 11.183 88.64 11.0825 88.4344 11.1565L88.5731 11.5421ZM88.8757 12.1363L89.0668 12.4988C89.1669 12.4461 89.2407 12.3543 89.2708 12.2453C89.3009 12.1362 89.2846 12.0196 89.2257 11.923L88.8757 12.1363ZM45.7129 34.8847L45.7675 35.2909C45.8152 35.2845 45.8614 35.2697 45.904 35.2473L45.7129 34.8847ZM13.626 39.2002L13.2211 39.2631C13.2554 39.4835 13.4596 39.6361 13.6807 39.6063L13.626 39.2002ZM13.5246 38.5478L13.47 38.1417C13.3608 38.1563 13.2621 38.2143 13.1962 38.3026C13.1303 38.3909 13.1027 38.5019 13.1196 38.6108L13.5246 38.5478ZM45.4795 34.2501L45.5341 34.6563C45.5818 34.6499 45.628 34.6351 45.6706 34.6127L45.4795 34.2501ZM88.5263 11.5628L88.8763 11.3496C88.7636 11.1647 88.5267 11.0993 88.3352 11.2003L88.5263 11.5628ZM1.29215 12.9122L0.943453 12.6969C0.883465 12.794 0.866721 12.9118 0.897253 13.0218C0.927785 13.1318 1.00283 13.2241 1.1043 13.2765L1.29215 12.9122ZM1.62355 12.3756L1.8114 12.0113C1.62111 11.9132 1.38735 11.9781 1.27486 12.1602L1.62355 12.3756ZM43.0962 33.7646L42.9084 34.1288C42.9476 34.1491 42.9899 34.1629 43.0335 34.1696L43.0962 33.7646ZM79.1106 39.3389L79.5154 39.4028C79.5324 39.2952 79.5058 39.1853 79.4416 39.0974C79.3774 39.0094 79.2809 38.9506 79.1733 38.9339L79.1106 39.3389ZM79.0139 39.9518L78.9512 40.3568C79.1745 40.3913 79.3836 40.2387 79.4187 40.0156L79.0139 39.9518ZM42.8752 34.3582L42.6873 34.7224C42.7266 34.7427 42.7689 34.7564 42.8125 34.7632L42.8752 34.3582ZM79.6155 39.1813L79.4996 39.5744C79.7103 39.6366 79.9325 39.5215 80.0034 39.3136L79.6155 39.1813ZM88.829 12.1569L89.2169 12.2891C89.253 12.1834 89.2443 12.0676 89.193 11.9685C89.1416 11.8693 89.052 11.7954 88.9449 11.7638L88.829 12.1569ZM78.9399 38.9821L78.552 38.8499C78.516 38.9556 78.5246 39.0714 78.576 39.1705C78.6273 39.2697 78.7169 39.3436 78.824 39.3752L78.9399 38.9821ZM88.1534 11.9577L88.2694 11.5646C88.0587 11.5024 87.8364 11.6175 87.7655 11.8254L88.1534 11.9577ZM1.65481 12.1568L1.76422 11.7619C1.5522 11.7032 1.33163 11.8223 1.26452 12.0318L1.65481 12.1568ZM33.0339 20.8497L33.4242 20.9747C33.4582 20.8685 33.4475 20.753 33.3945 20.6549C33.3415 20.5568 33.2508 20.4845 33.1433 20.4547L33.0339 20.8497ZM1.51503 12.5933L1.12474 12.4683C1.09073 12.5745 1.10146 12.6899 1.15446 12.788C1.20746 12.8862 1.29816 12.9584 1.40562 12.9882L1.51503 12.5933ZM32.8941 21.2861L32.7847 21.681C32.9968 21.7398 33.2173 21.6206 33.2844 21.4111L32.8941 21.2861ZM13.2368 38.8979L12.8423 38.7868L12.6627 39.4244L13.0572 39.5355L13.4517 39.6466L13.6313 39.009L13.2368 38.8979ZM28.0724 42.5123L28.1694 42.1142L13.3338 38.4997L13.2368 38.8979L13.1398 39.2961L27.9754 42.9105L28.0724 42.5123ZM79.7062 39.5376L79.6396 39.1332L61.5938 42.108L61.6604 42.5123L61.7271 42.9167L79.7729 39.942L79.7062 39.5376ZM79.8299 40.1866L80.2325 40.1099L80.1088 39.4609L79.7062 39.5376L79.3037 39.6143L79.4273 40.2633L79.8299 40.1866ZM61.7228 43.1715L61.7894 43.5758L79.8966 40.591L79.8299 40.1866L79.7633 39.7822L61.6561 42.7671L61.7228 43.1715ZM27.9811 43.1715V43.5813H61.7228V43.1715V42.7617H27.9811V43.1715ZM13.0572 39.5355L12.9602 39.9337L27.8841 43.5696L27.9811 43.1715L28.0781 42.7733L13.1542 39.1373L13.0572 39.5355ZM61.6604 42.5123V42.1025H28.0724V42.5123V42.9222H61.6604V42.5123ZM13.7031 39.1814L14.0775 39.0145L2.02899 11.99L1.65469 12.1569L1.28038 12.3238L13.3288 39.3482L13.7031 39.1814ZM13.0485 39.4338L13.1959 39.8162L13.8506 39.5637L13.7031 39.1814L13.5557 38.799L12.901 39.0514L13.0485 39.4338ZM1 12.4094L0.625694 12.5762L12.6742 39.6007L13.0485 39.4338L13.4228 39.2669L1.37431 12.2425L1 12.4094ZM1.65469 12.1569L1.50724 11.7745L0.852549 12.027L1 12.4094L1.14745 12.7917L1.80214 12.5393L1.65469 12.1569ZM60.0241 22.5186L60.1628 22.9042L88.9675 12.5425L88.8288 12.1569L88.6901 11.7713L59.8854 22.133L60.0241 22.5186ZM59.7684 21.9038L59.39 22.0612L59.6457 22.676L60.0241 22.5186L60.4025 22.3612L60.1468 21.7465L59.7684 21.9038ZM88.5731 11.5421L88.4344 11.1565L59.6297 21.5182L59.7684 21.9038L59.9072 22.2895L88.7118 11.9278L88.5731 11.5421ZM88.8288 12.1569L89.2072 11.9995L88.9515 11.3848L88.5731 11.5421L88.1947 11.6995L88.4504 12.3143L88.8288 12.1569ZM13.5246 38.5478L13.1196 38.6108L13.2211 39.2631L13.626 39.2002L14.031 39.1372L13.9296 38.4849L13.5246 38.5478ZM45.4795 34.2501L45.4248 33.844L13.47 38.1417L13.5246 38.5478L13.5792 38.954L45.5341 34.6563L45.4795 34.2501ZM88.5263 11.5628L88.3352 11.2003L45.2884 33.8876L45.4795 34.2501L45.6706 34.6127L88.7174 11.9254L88.5263 11.5628ZM88.8757 12.1363L89.2257 11.923L88.8763 11.3496L88.5263 11.5628L88.1763 11.7761L88.5258 12.3495L88.8757 12.1363ZM45.7129 34.8847L45.904 35.2473L89.0668 12.4988L88.8757 12.1363L88.6847 11.7737L45.5218 34.5222L45.7129 34.8847ZM13.626 39.2002L13.6807 39.6063L45.7675 35.2909L45.7129 34.8847L45.6583 34.4786L13.5714 38.794L13.626 39.2002ZM1.62355 12.3756L1.27486 12.1602L0.943453 12.6969L1.29215 12.9122L1.64084 13.1276L1.97225 12.5909L1.62355 12.3756ZM43.0962 33.7646L43.2841 33.4004L1.8114 12.0113L1.62355 12.3756L1.4357 12.7398L42.9084 34.1288L43.0962 33.7646ZM79.1106 39.3389L79.1733 38.9339L43.1589 33.3596L43.0962 33.7646L43.0335 34.1696L79.0479 39.7439L79.1106 39.3389ZM79.0139 39.9518L79.4187 40.0156L79.5154 39.4028L79.1106 39.3389L78.7058 39.2751L78.6091 39.8879L79.0139 39.9518ZM1.29215 12.9122L1.1043 13.2765L42.6873 34.7224L42.8752 34.3582L43.063 33.994L1.48 12.548L1.29215 12.9122ZM42.8752 34.3582L42.8125 34.7632L78.9512 40.3568L79.0139 39.9518L79.0766 39.5468L42.9379 33.9532L42.8752 34.3582ZM79.6155 39.1813L80.0034 39.3136L89.2169 12.2891L88.829 12.1569L88.4411 12.0246L79.2276 39.0491L79.6155 39.1813ZM78.9399 38.9821L78.824 39.3752L79.4996 39.5744L79.6155 39.1813L79.7314 38.7883L79.0558 38.589L78.9399 38.9821ZM88.1534 11.9577L87.7655 11.8254L78.552 38.8499L78.9399 38.9821L79.3278 39.1144L88.5413 12.0899L88.1534 11.9577ZM88.829 12.1569L88.9449 11.7638L88.2694 11.5646L88.1534 11.9577L88.0375 12.3508L88.7131 12.55L88.829 12.1569ZM1.65481 12.1568L1.5454 12.5518L32.9245 21.2446L33.0339 20.8497L33.1433 20.4547L1.76422 11.7619L1.65481 12.1568ZM1.51503 12.5933L1.90532 12.7183L2.0451 12.2818L1.65481 12.1568L1.26452 12.0318L1.12474 12.4683L1.51503 12.5933ZM32.8941 21.2861L33.0036 20.8911L1.62444 12.1983L1.51503 12.5933L1.40562 12.9882L32.7847 21.681L32.8941 21.2861ZM33.0339 20.8497L32.6436 20.7247L32.5039 21.1611L32.8941 21.2861L33.2844 21.4111L33.4242 20.9747L33.0339 20.8497Z" fill="black"/>
<line x1="0.819643" y1="-0.819643" x2="28.9999" y2="-0.819643" transform="matrix(0.50474 -0.863271 0.932338 0.361588 29.8982 26.7424)" stroke="black" stroke-width="1.63929" stroke-linecap="round" stroke-linejoin="round"/>
<path d="M45.0815 1.01575L62.1077 26.2536" stroke="black" stroke-width="1.63929" stroke-linecap="round" stroke-linejoin="round"/>
<line x1="0.409821" y1="-0.409821" x2="31.1345" y2="-0.409821" transform="matrix(-0.0642853 0.997932 -0.998765 -0.0496757 44.2619 1.59399)" stroke="#59FFD8" stroke-width="0.819643" stroke-linecap="round" stroke-linejoin="round" stroke-dasharray="1.64 1.64"/>
<line x1="0.409821" y1="-0.409821" x2="28.9756" y2="-0.409821" transform="matrix(0.138021 0.990429 -0.994261 0.106977 44.9377 2.78192)" stroke="#59FFD8" stroke-width="0.819643" stroke-linecap="round" stroke-linejoin="round" stroke-dasharray="1.64 1.64"/>
</svg>
